<?xml version="1.0" encoding="iso-8859-1"?>
<!-- Uploaded to: SVG Repo, www.svgrepo.com, Generator: SVG Repo Mixer Tools -->
<svg height="800px" width="800px" version="1.1" id="Layer_1" xmlns="http://www.w3.org/2000/svg" xmlns:xlink="http://www.w3.org/1999/xlink" 
	 viewBox="0 0 512 512" xml:space="preserve">
<g>
	<path style="fill:#BE3A2B;" d="M476.69,291.31C476.69,413.193,377.882,512,256,512S35.31,413.193,35.31,291.31
		S134.118,70.621,256,70.621S476.69,169.428,476.69,291.31"/>
	<g>
		<path style="fill:#F97B76;" d="M116.254,179.888c-2.03,0-4.078-0.697-5.738-2.127c-3.708-3.178-4.131-8.739-0.962-12.447
			c17.894-20.868,39.142-37.429,63.17-49.223c4.396-2.154,9.675-0.344,11.82,4.034c2.145,4.378,0.344,9.666-4.034,11.811
			c-21.557,10.593-41.454,26.103-57.547,44.871C121.215,178.846,118.743,179.888,116.254,179.888"/>
		<path style="fill:#F97B76;" d="M70.621,300.138h-0.035c-4.873-0.018-8.81-3.99-8.792-8.863
			c0.115-27.966,6.815-56.505,19.368-82.538c2.127-4.405,7.389-6.241,11.794-4.114c4.387,2.11,6.232,7.398,4.114,11.785
			c-11.423,23.667-17.514,49.585-17.62,74.937C79.431,296.21,75.476,300.138,70.621,300.138"/>
	</g>
	<path style="fill:#9C281F;" d="M256,70.621c18.264,0,35.99,2.26,52.966,6.444V50.529c0-8.404-6.815-15.219-15.219-15.219h-75.493
		c-8.404,0-15.219,6.815-15.219,15.219v26.536C220.01,72.881,237.736,70.621,256,70.621"/>
	<path style="fill:#CFD2CF;" d="M256,0c-9.71,0-17.655,7.945-17.655,17.655V35.31h35.31V17.655C273.655,7.945,265.71,0,256,0"/>
	<path style="fill:#F97B76;" d="M167.724,211.862h44.138l-88.276,79.448h70.621l-70.621,79.404v-0.018
		c83.491,20.224,176.922,26.836,264.828-0.018v0.044l-70.621-79.413h70.621l-88.276-79.448h44.138L256,132.414L167.724,211.862z"/>
	<g>
		<path style="fill:#FFFFFF;" d="M195.086,304.396c-3.496,0-6.806-2.083-8.192-5.526c-1.006-2.489-1.518-5.032-1.518-7.556
			c0-4.882,3.955-8.828,8.828-8.828c4.882,0,8.828,3.946,8.828,8.828c0,0.247,0.088,0.574,0.238,0.953
			c1.818,4.52-0.362,9.666-4.882,11.494C197.302,304.193,196.19,304.396,195.086,304.396"/>
		<path style="fill:#FFFFFF;" d="M221.849,325.612c-1.271,0-2.56-0.274-3.778-0.856c-2.94-1.395-5.703-2.825-8.28-4.273
			c-4.246-2.401-5.747-7.777-3.354-12.023c2.401-4.255,7.786-5.747,12.032-3.354c2.225,1.254,4.626,2.498,7.168,3.708
			c4.405,2.092,6.285,7.353,4.193,11.758C228.319,323.749,225.15,325.612,221.849,325.612 M254.405,337.9
			c-0.847,0-1.704-0.124-2.56-0.38c-2.913-0.883-5.764-1.792-8.545-2.719c-4.626-1.554-7.115-6.55-5.57-11.185
			c1.562-4.617,6.577-7.089,11.176-5.553c2.622,0.874,5.305,1.73,8.042,2.56c4.67,1.404,7.309,6.321,5.906,10.999
			C261.696,335.437,258.192,337.9,254.405,337.9 M288.17,346.268c-0.565,0-1.148-0.053-1.73-0.177
			c-2.931-0.574-5.835-1.183-8.713-1.836c-4.758-1.059-7.751-5.782-6.691-10.531c1.059-4.758,5.791-7.733,10.54-6.691
			c2.745,0.609,5.526,1.192,8.316,1.748c4.776,0.953,7.883,5.597,6.93,10.381C295.983,343.364,292.293,346.268,288.17,346.268
			 M322.58,351.468c-0.3,0-0.6-0.018-0.909-0.044c-2.948-0.3-5.906-0.644-8.872-1.024c-4.838-0.627-8.254-5.058-7.627-9.896
			c0.618-4.829,5.076-8.157,9.878-7.627c2.807,0.362,5.614,0.689,8.413,0.98c4.855,0.494,8.377,4.82,7.883,9.675
			C330.887,348.078,327.047,351.468,322.58,351.468"/>
		<path style="fill:#FFFFFF;" d="M353.103,353.103l-4.484-0.035c-4.882-0.062-8.792-4.052-8.739-8.933
			c0.053-4.829,3.99-8.722,8.81-8.722h0.106l4.308,0.035c4.873,0,8.828,3.946,8.828,8.828
			C361.931,349.158,357.976,353.103,353.103,353.103"/>
		<path style="fill:#FFFFFF;" d="M299.47,225.017c-0.812,0-1.642-0.115-2.454-0.344c-4.687-1.359-7.389-6.25-6.029-10.937
			c0.265-0.927,0.327-1.527,0.327-1.871c0-4.882,3.946-8.828,8.828-8.828c4.873,0,8.828,3.946,8.828,8.828
			c0,2.163-0.344,4.44-1.024,6.78C306.823,222.51,303.301,225.017,299.47,225.017"/>
		<path style="fill:#FFFFFF;" d="M280.681,249.879c-2.445,0-4.882-1.006-6.63-2.993c-3.222-3.663-2.869-9.242,0.794-12.465
			c1.88-1.651,3.637-3.319,5.252-4.961c3.416-3.478,9.004-3.549,12.482-0.124c3.487,3.416,3.54,8.995,0.124,12.482
			c-1.907,1.942-3.972,3.893-6.197,5.862C284.83,249.155,282.747,249.879,280.681,249.879 M254.931,267.967
			c-3.09,0-6.091-1.624-7.706-4.502c-2.392-4.246-0.883-9.64,3.372-12.023c2.198-1.236,4.334-2.507,6.391-3.805
			c4.14-2.586,9.578-1.333,12.173,2.781c2.595,4.122,1.351,9.578-2.772,12.164c-2.304,1.457-4.687,2.869-7.15,4.255
			C257.879,267.605,256.396,267.967,254.931,267.967 M226.25,280.996c-3.628,0-7.036-2.251-8.316-5.87
			c-1.633-4.59,0.768-9.64,5.367-11.273c2.375-0.847,4.714-1.73,7-2.657c4.555-1.818,9.675,0.362,11.502,4.873
			c1.827,4.52-0.362,9.666-4.882,11.493c-2.525,1.024-5.102,1.995-7.724,2.931C228.228,280.837,227.23,280.996,226.25,280.996
			 M195.76,288.95c-4.22,0-7.954-3.037-8.686-7.336c-0.83-4.802,2.392-9.366,7.203-10.196c2.489-0.424,4.961-0.892,7.398-1.421
			c4.749-1.015,9.454,2.039,10.47,6.806c1.024,4.767-2.022,9.454-6.797,10.469c-2.657,0.565-5.358,1.077-8.077,1.545
			C196.766,288.906,196.263,288.95,195.76,288.95"/>
		<path style="fill:#FFFFFF;" d="M167.724,291.31c-4.873,0-8.828-3.946-8.828-8.828s3.955-8.828,8.828-8.828
			c1.395,0,2.781-0.018,4.158-0.062c4.961,0.115,8.942,3.708,9.084,8.572c0.141,4.873-3.69,8.942-8.563,9.084
			C170.849,291.293,169.287,291.31,167.724,291.31"/>
	</g>
	<g>
		<path style="fill:#F97B76;" d="M370.759,158.897c0,4.873-3.955,8.828-8.828,8.828s-8.828-3.955-8.828-8.828
			c0-4.873,3.955-8.828,8.828-8.828S370.759,154.024,370.759,158.897"/>
		<path style="fill:#F97B76;" d="M441.379,326.621c0,4.873-3.955,8.828-8.828,8.828s-8.828-3.955-8.828-8.828
			c0-4.873,3.955-8.828,8.828-8.828S441.379,321.748,441.379,326.621"/>
		<path style="fill:#F97B76;" d="M326.621,459.034c0,4.873-3.955,8.828-8.828,8.828c-4.873,0-8.828-3.955-8.828-8.828
			s3.955-8.828,8.828-8.828C322.666,450.207,326.621,454.162,326.621,459.034"/>
		<path style="fill:#F97B76;" d="M97.103,344.276c0,4.873-3.955,8.828-8.828,8.828c-4.873,0-8.828-3.955-8.828-8.828
			c0-4.873,3.955-8.828,8.828-8.828C93.149,335.448,97.103,339.403,97.103,344.276"/>
		<path style="fill:#F97B76;" d="M141.241,229.517c0,4.873-3.955,8.828-8.828,8.828c-4.873,0-8.828-3.955-8.828-8.828
			s3.955-8.828,8.828-8.828C137.287,220.69,141.241,224.644,141.241,229.517"/>
		<path style="fill:#F97B76;" d="M185.379,423.724c0,4.873-3.955,8.828-8.828,8.828c-4.873,0-8.828-3.955-8.828-8.828
			c0-4.873,3.955-8.828,8.828-8.828C181.425,414.897,185.379,418.851,185.379,423.724"/>
		<path style="fill:#F97B76;" d="M229.517,387.231v36.493h52.966v-35.725C264.766,388.687,247.075,388.378,229.517,387.231"/>
	</g>
</g>
</svg>