<?xml version="1.0" encoding="iso-8859-1"?>
<!-- Uploaded to: SVG Repo, www.svgrepo.com, Generator: SVG Repo Mixer Tools -->
<svg version="1.1" id="Layer_1" xmlns="http://www.w3.org/2000/svg" xmlns:xlink="http://www.w3.org/1999/xlink" 
	 viewBox="0 0 511.999 511.999" xml:space="preserve">
<rect x="199.865" y="111.706" style="fill:#FF1D25;" width="112.126" height="24.026"/>
<rect x="215.884" y="71.657" style="fill:#FBB03B;" width="80.087" height="40.049"/>
<path style="fill:#FF1D25;" d="M208.201,135.421v55.713c-66.136,20.413-112.286,81.101-112.286,152.818
	c0,88.461,71.63,160.173,160.091,160.173s160.009-71.713,160.009-160.173c0-71.717-46.15-132.406-112.286-152.818v-55.714"/>
<path style="fill:#FF4A51;" d="M303.73,191.134v-55.714h-31.493v55.713c65.086,20.413,111.974,81.101,111.974,152.818
	c0,83.054-63.292,151.326-144.229,159.365c5.27,0.524,10.573,0.809,15.981,0.809c88.461,0,160.031-71.713,160.031-160.173
	C415.993,272.236,369.866,211.548,303.73,191.134z"/>
<path style="fill:#B20209;" d="M208.201,191.134v-55.714h31.493v55.713c-64.036,20.413-112.015,81.101-112.015,152.818
	c0,83.054,63.272,151.326,144.209,159.365c-5.27,0.524-10.583,0.809-15.99,0.809c-88.462,0-159.997-71.713-159.997-160.173
	C95.901,272.236,143.115,211.548,208.201,191.134z"/>
<rect x="207.874" y="143.735" style="fill:#FDD089;" width="96.107" height="24.026"/>
<rect x="207.874" y="143.735" style="fill:#FBB03B;" width="64.068" height="24.026"/>
<rect x="207.874" y="143.735" style="fill:#AE7418;" width="32.035" height="24.026"/>
<g>
	<polygon style="fill:#EACE76;" points="416.099,375.987 328.006,351.961 255.921,375.987 167.827,351.961 95.751,375.987 
		95.751,327.935 167.831,303.909 255.929,327.935 328.004,303.909 416.099,327.935 	"/>
	<polygon style="fill:#EACE76;" points="392.072,263.865 119.777,263.865 135.795,239.84 376.055,239.84 	"/>
	<polygon style="fill:#EACE76;" points="400.081,416.031 111.769,416.031 127.786,440.057 384.064,440.057 	"/>
</g>
<rect x="248.091" width="15.747" height="47.24"/>
<rect x="223.946" y="160.615" width="64.036" height="15.747"/>
<path d="M312.128,103.927h-7.348V64.036h-40.941v-8.398h-15.747v8.398h-40.941v39.891h-7.348v15.747h112.326V103.927z
	 M222.898,79.783h66.136v24.145h-66.136V79.783z"/>
<path d="M311.078,185.429v-41.61h16.796v-15.747H184.056v15.747h16.796v41.61c-67.562,23.398-112.547,86.38-112.547,158.524
	c0,44.898,17.44,87.095,49.108,118.822c31.685,31.743,73.849,49.225,118.726,49.225c44.863,0,86.98-17.484,118.593-49.232
	c31.573-31.708,48.961-73.904,48.961-118.815C423.692,271.822,378.678,208.837,311.078,185.429z M211.047,198.658l5.551-1.713
	v-53.126h78.733v53.125l5.551,1.713c22.25,6.868,41.959,18.401,58.213,33.342H152.861
	C169.106,217.057,188.807,205.522,211.047,198.658z M138.039,247.746h235.889c2.221,2.725,4.349,5.524,6.374,8.398H131.67
	C133.693,253.27,135.82,250.471,138.039,247.746z M121.978,271.891h268.026c7.435,13.905,12.737,29.061,15.567,45.012
	l-77.795-21.217l-72.078,24.026l-88.096-24.026l-61.022,20.34C109.443,300.396,114.685,285.541,121.978,271.891z M126.236,423.058
	h259.753c-1.953,3.22-4.04,6.368-6.239,9.448H132.487C130.291,429.439,128.204,426.288,126.236,423.058z M256.139,496.253
	c-43.597,0-82.963-18.468-110.717-48.001H366.85c-1.075,1.147-2.164,2.285-3.277,3.404
	C334.937,480.416,296.783,496.253,256.139,496.253z M394.289,407.311h-276.43c-3.979-8.674-7.169-17.783-9.474-27.236l59.673-19.891
	l88.096,24.026l72.078-24.026l75.297,20.536C401.281,389.881,398.176,398.77,394.289,407.311z M327.775,343.738l-72.078,24.026
	l-88.096-24.026l-62.166,20.721c-0.906-6.709-1.384-13.554-1.384-20.507c0-3.563,0.128-7.099,0.367-10.608l63.639-21.213
	l88.096,24.026l72.078-24.026l79.377,21.648c0.219,3.366,0.337,6.757,0.337,10.172c0,7.174-0.5,14.268-1.462,21.252L327.775,343.738
	z"/>
<g>
	<rect x="248.091" y="287.638" style="fill:#FFFFFF;" width="15.747" height="15.747"/>
	<rect x="159.91" y="375.818" style="fill:#FFFFFF;" width="15.747" height="15.747"/>
	<rect x="319.475" y="375.818" style="fill:#FFFFFF;" width="16.796" height="15.747"/>
	<rect x="248.091" y="199.457" style="fill:#FFFFFF;" width="15.747" height="15.747"/>
	<rect x="248.091" y="463.999" style="fill:#FFFFFF;" width="15.747" height="15.747"/>
</g>
</svg>