<?xml version="1.0" encoding="iso-8859-1"?>
<!-- Uploaded to: SVG Repo, www.svgrepo.com, Generator: SVG Repo Mixer Tools -->
<svg height="800px" width="800px" version="1.1" id="Layer_1" xmlns="http://www.w3.org/2000/svg" xmlns:xlink="http://www.w3.org/1999/xlink" 
	 viewBox="0 0 512.002 512.002" xml:space="preserve">
<g>
	<path style="fill:#ECF0F1;" d="M437.657,320.252c0,25.27-5.157,49.33-14.492,71.189c-10.405,4.733-12.877,18.63-27.38,18.63
		c-17.479,0-17.479-20.184-34.949-20.184c-17.479,0-17.479,20.184-34.949,20.184c-17.479,0-17.479-20.184-34.949-20.184
		c-17.479,0-17.479,20.184-34.949,20.184c-17.479,0-17.479-20.184-34.949-20.184s-17.469,20.184-34.949,20.184
		c-17.469,0-17.469-20.184-34.938-20.184s-17.469,20.184-34.949,20.184c-14.492,0-16.965-13.897-27.369-18.63
		c-9.335-21.859-14.492-45.919-14.492-71.189c0-3.825,0.121-7.619,0.353-11.384l49.976,35.827l43.769-30.72l43.769,30.72
		l43.779-30.72l43.769,30.72l43.779-30.72l43.779,30.72l50.056-34.525C437.566,313.512,437.657,316.871,437.657,320.252z"/>
	<path style="fill:#ECF0F1;" d="M424.446,252.121c-8.043,5.783-11.555,16.662-24.746,16.662c-17.964,0-17.964-20.184-35.927-20.184
		c-17.964,0-17.964,20.184-35.927,20.184c-17.964,0-17.964-20.184-35.927-20.184c-17.964,0-17.964,20.184-35.927,20.184
		s-17.964-20.184-35.927-20.184s-17.964,20.184-35.928,20.184c-17.954,0-17.954-20.184-35.917-20.184s-17.964,20.184-35.927,20.184
		c-13.19,0-16.692-10.879-24.735-16.662c20.759-51.277,64.256-90.909,117.985-106.42v-29.64h100.92v29.64
		C360.191,161.212,403.687,200.844,424.446,252.121z"/>
</g>
<path style="fill:#3EAF64;" d="M423.165,391.441c-27.682,64.942-92.11,110.467-167.164,110.467S116.52,456.383,88.837,391.441
	c10.405,4.733,12.877,18.63,27.369,18.63c17.479,0,17.479-20.184,34.949-20.184s17.469,20.184,34.938,20.184
	c17.479,0,17.479-20.184,34.949-20.184s17.469,20.184,34.949,20.184c17.469,0,17.469-20.184,34.949-20.184
	c17.469,0,17.469,20.184,34.949,20.184c17.469,0,17.469-20.184,34.949-20.184c17.469,0,17.469,20.184,34.949,20.184
	C410.287,410.071,412.76,396.174,423.165,391.441z"/>
<path style="fill:#E87078;" d="M437.374,310.171l-50.056,34.525l-43.779-30.72l-43.779,30.72l-43.769-30.72l-43.779,30.72
	l-43.769-30.72l-43.769,30.72l-49.976-35.827c1.231-19.952,5.692-39.046,12.857-56.747c8.043,5.783,11.545,16.662,24.735,16.662
	c17.964,0,17.964-20.184,35.927-20.184s17.964,20.184,35.917,20.184c17.964,0,17.964-20.184,35.928-20.184
	s17.964,20.184,35.927,20.184s17.964-20.184,35.927-20.184s17.964,20.184,35.927,20.184c17.964,0,17.964-20.184,35.927-20.184
	s17.964,20.184,35.927,20.184c13.19,0,16.702-10.879,24.746-16.662C431.763,270.206,436.264,289.744,437.374,310.171z"/>
<path style="fill:#A18671;" d="M180.311,116.058c18.921,0,18.921,8.074,37.843,8.074s18.921-8.074,37.842-8.074
	c18.923,0,18.923,8.074,37.847,8.074c18.923,0,18.923-8.074,37.847-8.074v-33.64c0.001-14.863-12.048-26.912-26.911-26.912h-97.556
	c-14.863,0-26.912,12.049-26.912,26.912v33.64H180.311z"/>
<g>
	<path style="fill:#231F20;" d="M447.749,320.252c0-3.605-0.101-7.177-0.298-10.618c0-0.004,0-0.008,0-0.011
		c0-0.009-0.001-0.018-0.002-0.027c0-0.001,0-0.003,0-0.004c0-0.001,0-0.001,0-0.002c-1.15-21.104-5.741-41.712-13.647-61.252
		c0-0.001-0.001-0.002-0.001-0.003c-10.784-26.638-27.802-50.953-49.214-70.319c-19.632-17.756-43.02-31.399-68.034-39.741v-8.822
		c0.058-0.024,0.118-0.049,0.175-0.075c4.391-1.873,7.564-3.227,14.963-3.227c5.574,0,10.092-4.518,10.092-10.092v-33.64
		c0-20.404-16.6-37.004-37.004-37.004h-10.933v-7.569C293.846,16.977,276.869,0,256.001,0s-37.845,16.977-37.845,37.845v7.569
		h-10.933c-20.404,0-37.004,16.6-37.004,37.004v33.64c0,5.574,4.518,10.092,10.092,10.092c7.397,0,10.57,1.353,14.96,3.227
		c0.059,0.025,0.119,0.05,0.178,0.076v8.821c-25.014,8.342-48.402,21.985-68.034,39.741c-21.41,19.365-38.427,43.679-49.212,70.315
		c-0.001,0.002-0.002,0.004-0.003,0.005c-7.733,19.106-12.301,39.264-13.575,59.912l0,0l0,0c-0.247,4.009-0.372,8.048-0.372,12.005
		c0,26.082,5.146,51.359,15.293,75.13c0.002,0.006,0.004,0.011,0.006,0.017C109.746,466.233,179.006,512.002,256,512.002
		S402.254,466.233,432.447,395.4c0.002-0.006,0.004-0.011,0.006-0.017C442.603,371.611,447.749,346.334,447.749,320.252z
		 M91.732,270.594c4.648,4.329,10.934,8.281,20.559,8.281c13.51,0,20.441-7.788,25.502-13.475c4.513-5.07,6.318-6.709,10.426-6.709
		s5.912,1.64,10.425,6.71c5.059,5.686,11.987,13.474,25.492,13.474c13.51,0,20.441-7.788,25.502-13.475
		c4.513-5.07,6.318-6.709,10.426-6.709s5.912,1.639,10.425,6.709c5.061,5.687,11.992,13.475,25.503,13.475
		c13.51,0,20.441-7.788,25.502-13.475c4.512-5.07,6.317-6.709,10.425-6.709s5.913,1.639,10.426,6.709
		c5.061,5.687,11.992,13.475,25.502,13.475c13.51,0,20.441-7.788,25.503-13.475c4.512-5.07,6.317-6.709,10.425-6.709
		s5.912,1.639,10.425,6.709c5.061,5.687,11.992,13.475,25.503,13.475c9.627,0,15.915-3.954,20.566-8.284
		c3.393,11.236,5.614,22.792,6.635,34.542l-39.534,27.269l-38.032-26.687c-1.74-1.221-3.768-1.831-5.797-1.831
		c-2.029,0-4.058,0.611-5.797,1.831l-37.982,26.652l-37.971-26.651c-3.48-2.441-8.116-2.442-11.595,0l-37.982,26.652l-37.971-26.651
		c-3.48-2.441-8.116-2.442-11.596,0l-37.91,26.608l-39.535-28.342C86.266,292.623,88.452,281.457,91.732,270.594z M238.34,37.845
		c0-9.738,7.923-17.661,17.661-17.661s17.661,7.923,17.661,17.661v7.569H238.34L238.34,37.845L238.34,37.845z M190.403,106.77
		V82.418c0-9.275,7.546-16.82,16.82-16.82h21.025h55.506h21.025c9.275,0,16.82,7.546,16.82,16.82v24.352
		c-5.569,0.961-9.45,2.617-12.792,4.042c-4.392,1.873-7.565,3.227-14.963,3.227c-7.398,0-10.572-1.353-14.963-3.227
		c-5.061-2.16-11.36-4.846-22.884-4.846c-11.523,0-17.821,2.688-22.882,4.846c-4.391,1.873-7.563,3.227-14.96,3.227
		c-7.398,0-10.57-1.353-14.961-3.227C199.852,109.387,195.971,107.731,190.403,106.77z M208.34,155.397
		c4.319-1.246,7.293-5.2,7.293-9.695v-11.528c0.814,0.029,1.648,0.049,2.522,0.049c11.523,0,17.821-2.687,22.882-4.846
		c4.33-1.848,7.483-3.187,14.665-3.223h0.59c7.184,0.036,10.337,1.376,14.668,3.223c5.061,2.16,11.36,4.846,22.884,4.846
		c0.875,0,1.71-0.02,2.525-0.049v11.528c0,4.496,2.974,8.449,7.293,9.695c47.934,13.838,88.102,48.766,108.692,94.131l0.003,0.002
		c-0.777,0.834-1.516,1.658-2.221,2.449c-4.517,5.072-6.324,6.711-10.434,6.711c-4.108,0-5.913-1.639-10.426-6.709
		c-5.061-5.687-11.992-13.475-25.502-13.475s-20.441,7.788-25.502,13.475c-4.513,5.07-6.318,6.709-10.426,6.709
		s-5.912-1.639-10.425-6.709c-5.061-5.686-11.992-13.475-25.503-13.475c-13.51,0-20.441,7.788-25.502,13.475
		c-4.512,5.07-6.317,6.709-10.425,6.709c-4.108,0-5.913-1.639-10.426-6.709c-5.061-5.687-11.992-13.475-25.502-13.475
		c-13.51,0-20.441,7.788-25.503,13.475c-4.512,5.07-6.317,6.709-10.425,6.709c-4.101,0-5.905-1.639-10.413-6.706
		c-5.061-5.688-11.992-13.478-25.503-13.478c-13.51,0-20.441,7.788-25.502,13.475c-4.513,5.07-6.317,6.709-10.425,6.709
		c-4.107,0-5.911-1.639-10.422-6.706c-0.706-0.793-1.446-1.62-2.224-2.454l0.003-0.002
		C120.237,204.164,160.407,169.236,208.34,155.397z M256.001,491.816c-56.181,0-107.757-27.232-139.53-71.654
		c13.182-0.106,20.194-8.207,24.845-13.58c4.32-4.989,6.036-6.603,9.839-6.603s5.518,1.614,9.839,6.604
		c4.68,5.407,11.753,13.58,25.1,13.58c13.352,0,20.428-8.172,25.11-13.581c4.32-4.989,6.036-6.603,9.839-6.603
		c3.803,0,5.518,1.614,9.839,6.603c4.683,5.408,11.757,13.581,25.11,13.581c13.345,0,20.417-8.169,25.098-13.576
		c4.323-4.994,6.041-6.608,9.851-6.608c3.803,0,5.518,1.614,9.839,6.603c4.682,5.408,11.757,13.581,25.11,13.581
		c13.345,0,20.418-8.171,25.099-13.577c4.323-4.994,6.041-6.607,9.85-6.607c3.803,0,5.518,1.614,9.839,6.603
		c4.652,5.374,11.667,13.477,24.856,13.58C363.758,464.585,312.182,491.816,256.001,491.816z M405.637,393.371
		c-4.325,4.995-6.044,6.608-9.853,6.608c-3.809,0-5.527-1.615-9.85-6.607c-4.681-5.406-11.753-13.577-25.099-13.577
		c-13.352,0-20.428,8.172-25.11,13.581c-4.32,4.989-6.036,6.603-9.839,6.603c-3.809,0-5.527-1.615-9.85-6.607
		c-4.681-5.406-11.753-13.577-25.099-13.577c-13.353,0-20.428,8.172-25.11,13.581c-4.32,4.989-6.036,6.603-9.839,6.603
		c-3.809,0-5.527-1.615-9.851-6.607c-4.681-5.406-11.753-13.577-25.099-13.577s-20.418,8.171-25.099,13.577
		c-4.323,4.993-6.041,6.607-9.85,6.607c-3.803,0-5.518-1.614-9.839-6.604c-4.68-5.407-11.753-13.58-25.1-13.58
		c-13.345,0-20.418,8.171-25.099,13.577c-4.323,4.993-6.041,6.607-9.85,6.607c-3.802,0-5.518-1.614-9.84-6.605
		c-2.492-2.877-5.471-6.291-9.544-8.987l0.004-0.016c-7.214-17.852-11.306-36.629-12.201-55.968l34.168,24.495
		c3.485,2.498,8.167,2.522,11.677,0.059l37.971-26.651l37.971,26.651c3.48,2.441,8.116,2.442,11.595,0l37.982-26.652l37.971,26.651
		c3.48,2.441,8.116,2.442,11.595,0l37.982-26.652l37.982,26.652c1.74,1.22,3.767,1.831,5.797,1.831c2.001,0,4.004-0.594,5.73-1.784
		l34.281-23.645l0,0c-0.985,19.001-5.06,37.455-12.155,55.012l0.015,0.009C411.113,387.076,408.131,390.491,405.637,393.371z"/>
	<path style="fill:#231F20;" d="M166.687,346.491c-2.654,0-5.258,1.08-7.135,2.957c-1.877,1.877-2.957,4.481-2.957,7.135
		c0,2.654,1.08,5.258,2.957,7.135c1.877,1.877,4.481,2.957,7.135,2.957c2.654,0,5.258-1.08,7.135-2.957
		c1.877-1.877,2.957-4.481,2.957-7.135c0-2.654-1.08-5.258-2.957-7.135C171.945,347.571,169.341,346.491,166.687,346.491z"/>
	<path style="fill:#231F20;" d="M255.749,346.491c-5.571,0-10.092,4.521-10.092,10.092c0,5.571,4.521,10.092,10.092,10.092
		s10.092-4.521,10.092-10.092C265.841,351.013,261.319,346.491,255.749,346.491z"/>
	<path style="fill:#231F20;" d="M344.81,346.491c-2.654,0-5.258,1.08-7.135,2.957c-1.877,1.877-2.957,4.481-2.957,7.135
		c0,2.654,1.08,5.258,2.957,7.135c1.877,1.877,4.481,2.957,7.135,2.957c2.654,0,5.258-1.08,7.135-2.957
		c1.877-1.877,2.957-4.481,2.957-7.135c0-2.654-1.08-5.258-2.957-7.135C350.068,347.571,347.465,346.491,344.81,346.491z"/>
	<path style="fill:#231F20;" d="M133.959,308.717c1.877-1.877,2.957-4.481,2.957-7.135c0-2.654-1.08-5.258-2.957-7.135
		c-1.877-1.877-4.481-2.957-7.135-2.957s-5.258,1.08-7.135,2.957c-1.877,1.877-2.957,4.481-2.957,7.135
		c0,2.654,1.08,5.258,2.957,7.135s4.481,2.957,7.135,2.957S132.081,310.594,133.959,308.717z"/>
	<path style="fill:#231F20;" d="M212.777,311.674c5.571,0,10.092-4.521,10.092-10.092s-4.521-10.092-10.092-10.092
		c-5.581,0-10.092,4.521-10.092,10.092S207.195,311.674,212.777,311.674z"/>
	<path style="fill:#231F20;" d="M298.72,311.674c5.581,0,10.092-4.521,10.092-10.092s-4.511-10.092-10.092-10.092
		c-5.571,0-10.092,4.521-10.092,10.092S293.15,311.674,298.72,311.674z"/>
	<path style="fill:#231F20;" d="M384.674,311.674c2.654,0,5.258-1.08,7.135-2.957c1.877-1.877,2.957-4.481,2.957-7.135
		c0-2.654-1.08-5.258-2.957-7.135c-1.877-1.877-4.481-2.957-7.135-2.957s-5.258,1.08-7.135,2.957
		c-1.877,1.877-2.957,4.481-2.957,7.135c0,2.654,1.08,5.258,2.957,7.135C379.416,310.594,382.019,311.674,384.674,311.674z"/>
</g>
</svg>