<?xml version="1.0" encoding="iso-8859-1"?>
<!-- Uploaded to: SVG Repo, www.svgrepo.com, Generator: SVG Repo Mixer Tools -->
<svg height="800px" width="800px" version="1.1" id="Layer_1" xmlns="http://www.w3.org/2000/svg" xmlns:xlink="http://www.w3.org/1999/xlink" 
	 viewBox="0 0 506.667 506.667" xml:space="preserve">
<g transform="translate(0 -1004.36)" shape-rendering="auto" image-rendering="auto" color-rendering="auto" color-interpolation="sRGB">
	<path style="fill:#3B322E;" d="M253.333,1004.38L253.333,1004.38c-21.996,0-40,18.003-40,40c0,4.592,0.853,9.078,2.375,13.333
		h-26.334c-4.418,0.001-8,3.582-8,8v37.084c-82.923,30.149-138.593,108.928-138.708,197.563
		c0,116.253,94.414,210.667,210.667,210.667c116.254,0,210.667-94.414,210.667-210.667
		c-0.107-88.622-55.718-167.437-138.625-197.626v-37.021c0-4.418-3.582-7.999-8-8h-26.437c1.52-4.264,2.39-8.753,2.396-13.354
		c0-21.997-18.003-40-40-40L253.333,1004.38z M253.333,1020.422c13.35,0,24,10.65,24,24c-0.011,4.924-2.33,9.335-5.124,13.333
		h-37.75c-2.803-4.002-5.115-8.421-5.125-13.355C229.333,1031.06,239.991,1020.422,253.333,1020.422z"/>
	<path style="fill:#FCD116;" d="M197.375,1073.755h112v26.645h-112V1073.755z"/>
	<path style="fill:#EA65A2;" d="M190.959,1116.422h124.958c78.859,26.807,132.007,100.641,132.083,183.999
		c0,107.607-87.06,194.667-194.667,194.667c-107.605,0-194.667-87.06-194.667-194.667
		C58.773,1217.005,112.014,1143.154,190.959,1116.422L190.959,1116.422z"/>
	<g>
		<path style="fill:#3B322E;" d="M253.209,1185.787c-4.41,0.069-7.933,3.694-7.875,8.105V1417.6
			c-0.062,4.418,3.469,8.051,7.887,8.113s8.051-3.469,8.113-7.887c0.001-0.076,0.001-0.151,0-0.227v-223.708
			c0.058-4.419-3.477-8.047-7.895-8.105C253.362,1185.786,253.285,1185.786,253.209,1185.787z"/>
		<path style="fill:#3B322E;" d="M157.062,1239.101c-4.415,0.173-7.855,3.892-7.682,8.307c0.106,2.711,1.578,5.184,3.911,6.568
			l191.729,117.188c3.774,2.307,8.703,1.117,11.01-2.656c2.307-3.773,1.118-8.703-2.656-11.01L161.626,1240.33
			C160.263,1239.471,158.673,1239.042,157.062,1239.101L157.062,1239.101z"/>
		<path style="fill:#3B322E;" d="M349.355,1239.101c-1.533-0.014-3.037,0.413-4.334,1.229l-191.729,117.167
			c-3.774,2.301-4.968,7.227-2.666,11c2.301,3.775,7.226,4.967,11,2.667l191.749-117.188c3.797-2.26,5.042-7.171,2.781-10.967
			C354.727,1240.607,352.149,1239.127,349.355,1239.101z"/>
		<path style="fill:#3B322E;" d="M221.375,1196.434c-4.419,0.004-7.998,3.589-7.994,8.008c0.002,2.705,1.372,5.226,3.639,6.7
			l31.875,21.251c2.687,1.792,6.188,1.792,8.876,0l31.874-21.25c3.711-2.398,4.775-7.352,2.376-11.063
			c-2.399-3.711-7.351-4.775-11.063-2.376c-0.063,0.041-0.126,0.083-0.189,0.126l-27.438,18.292l-27.437-18.292
			C224.564,1196.919,222.988,1196.433,221.375,1196.434L221.375,1196.434z"/>
		<path style="fill:#3B322E;" d="M157.626,1324.434c-4.417-0.139-8.11,3.328-8.249,7.744c-0.104,3.294,1.822,6.315,4.853,7.611
			l27.104,12.042v23.104c-0.062,4.418,3.469,8.051,7.887,8.113s8.051-3.469,8.113-7.887c0.001-0.076,0.001-0.151,0-0.227v-28.313
			c0.001-3.161-1.861-6.027-4.75-7.313l-31.875-14.146c-0.969-0.445-2.017-0.691-3.083-0.725L157.626,1324.434z"/>
		<path style="fill:#3B322E;" d="M349.604,1324.434c-1.262-0.051-2.518,0.198-3.666,0.725l-31.854,14.146
			c-2.89,1.284-4.752,4.15-4.751,7.313v28.313c-0.062,4.418,3.469,8.051,7.887,8.113s8.051-3.469,8.113-7.887
			c0.001-0.076,0.001-0.151,0-0.227v-23.104l27.105-12.042c4.064-1.734,5.954-6.434,4.22-10.499
			c-1.214-2.846-3.961-4.737-7.054-4.855V1324.434z"/>
		<path style="fill:#3B322E;" d="M189.209,1228.454c-4.41,0.069-7.933,3.694-7.875,8.104v23.104l-27.104,12.042
			c-4.087,1.681-6.037,6.357-4.356,10.443c1.681,4.087,6.356,6.036,10.443,4.355c0.132-0.053,0.263-0.112,0.392-0.173l31.875-14.146
			c2.889-1.285,4.751-4.151,4.75-7.313v-28.313c0.058-4.418-3.477-8.047-7.896-8.104
			C189.361,1228.452,189.285,1228.452,189.209,1228.454L189.209,1228.454z"/>
		<path style="fill:#3B322E;" d="M317.209,1228.454c-4.41,0.069-7.933,3.694-7.875,8.104v28.313
			c-0.001,3.163,1.861,6.029,4.751,7.313l31.854,14.146c4.034,1.806,8.768-0.001,10.573-4.035c1.806-4.034-0.001-8.767-4.035-10.573
			c-0.013-0.005-0.025-0.012-0.038-0.017l-27.105-12.042v-23.104c0.058-4.418-3.477-8.047-7.896-8.104
			C317.361,1228.452,317.285,1228.452,317.209,1228.454L317.209,1228.454z"/>
		<path style="fill:#3B322E;" d="M253.23,1377.745c-1.543,0.017-3.048,0.48-4.334,1.333l-31.875,21.25
			c-3.71,2.4-4.773,7.353-2.373,11.063c2.4,3.711,7.353,4.773,11.063,2.374c0.063-0.04,0.124-0.082,0.186-0.124l27.437-18.292
			l27.438,18.292c3.636,2.51,8.619,1.599,11.13-2.038c2.511-3.635,1.599-8.619-2.037-11.129c-0.072-0.05-0.145-0.099-0.218-0.146
			l-31.874-21.25C256.427,1378.187,254.844,1377.722,253.23,1377.745L253.23,1377.745z"/>
	</g>
	<path style="fill:#CAA712;" d="M290.042,1073.755v26.645h19.333v-26.645H290.042z"/>
	<path style="fill:#BB5182;" d="M296.583,1116.422c78.859,26.807,131.977,100.641,132.083,183.999
		c0,104.343-81.925,189.125-184.999,194.188c3.225,0.16,6.402,0.48,9.666,0.48c107.606,0,194.667-87.06,194.667-194.667
		c-0.107-83.359-53.225-157.193-132.083-184L296.583,1116.422L296.583,1116.422z"/>
</g>
</svg>