<?xml version="1.0" encoding="iso-8859-1"?>
<!-- Uploaded to: SVG Repo, www.svgrepo.com, Generator: SVG Repo Mixer Tools -->
<svg height="800px" width="800px" version="1.1" id="Layer_1" xmlns="http://www.w3.org/2000/svg" xmlns:xlink="http://www.w3.org/1999/xlink" 
	 viewBox="0 0 512 512" xml:space="preserve">
<path style="fill:#FFDA44;" d="M256,147.552c19.293,0,37.865,3.076,55.267,8.745V79.772H200.733v76.525
	C218.135,150.628,236.707,147.552,256,147.552z"/>
<path style="fill:#EDC10C;" d="M311.267,156.297V79.772h-34.411v69C288.721,150.155,300.229,152.701,311.267,156.297z"/>
<circle style="fill:#D80027;" cx="256" cy="325.866" r="178.314"/>
<path style="fill:#BC052F;" d="M431.205,292.614c-15.022,1.737-23.339,16.044-31.33,30.964c0.009,0.762,0.027,1.523,0.027,2.289
	c0,92.675-70.702,168.827-161.108,177.485c5.663,0.542,11.401,0.829,17.206,0.829c98.48,0,178.314-79.833,178.314-178.314
	C434.314,314.5,433.238,303.388,431.205,292.614z"/>
<path style="fill:#FFFFFF;" d="M431.217,292.612c-32.597,3.754-33.629,66.685-68.228,66.685c-35.673,0-35.673-66.862-71.336-66.862
	s-35.663,66.862-71.325,66.862c-35.652,0-35.652-66.862-71.315-66.862c-34.599,0-35.631,62.931-68.228,66.685
	c-2.033-10.772-3.097-21.888-3.097-33.254c0-98.479,79.834-178.314,178.314-178.314
	C343.113,147.552,415.638,210.024,431.217,292.612z"/>
<path style="fill:#E6E6E6;" d="M431.217,292.612c-15.579-82.587-88.104-145.06-175.217-145.06c-5.808,0-11.543,0.292-17.206,0.834
	c89.647,8.582,159.919,83.536,161.098,175.154L431.217,292.612z"/>
<path style="fill:#FFFFFF;" d="M101.694,345.362c-5.506,7.323-12.034,12.73-20.899,13.755
	C96.374,441.705,168.885,504.179,256,504.179c3.854,0,7.677-0.137,11.47-0.378C180.824,498.299,111.001,430.921,101.694,345.362z"/>
<path d="M208.554,87.593h94.892v45.36h15.642V71.951h-55.267V52.006c10.857-3.347,18.77-13.475,18.77-25.415
	C282.591,11.928,270.661,0,256,0c-14.662,0-26.591,11.928-26.591,26.591c0,11.941,7.913,22.067,18.77,25.415v19.945h-55.267v61.002
	h15.642V87.593z M256,15.642c6.038,0,10.949,4.911,10.949,10.949S262.038,37.54,256,37.54c-6.038,0-10.949-4.911-10.949-10.949
	S249.962,15.642,256,15.642z"/>
<path d="M256,139.731c-102.635,0-186.134,83.5-186.134,186.134S153.365,512,256,512s186.134-83.5,186.134-186.134
	S358.635,139.731,256,139.731z M256,155.373c80.607,0,148.324,56.231,165.994,131.526c-14.465,5.723-22.757,21.246-30.247,35.286
	c-9.722,18.226-16.509,29.293-28.765,29.293c-12.255,0-19.042-11.067-28.763-29.293c-9.393-17.612-20.04-37.574-42.564-37.574
	s-33.169,19.963-42.563,37.574c-9.721,18.226-16.507,29.293-28.762,29.293c-12.254,0-19.04-11.067-28.761-29.293
	c-9.392-17.612-20.038-37.574-42.561-37.574c-22.524,0-33.171,19.963-42.563,37.574c-6.938,13.009-12.383,22.366-19.386,26.66
	c-1.018-7.517-1.555-15.187-1.555-22.979C85.507,231.856,161.99,155.373,256,155.373z M256,496.358
	c-80.607,0-148.324-56.231-165.994-131.527c14.464-5.723,22.755-21.245,30.243-35.286c9.721-18.226,16.507-29.294,28.762-29.294
	c12.254,0,19.039,11.067,28.76,29.294c9.392,17.612,20.039,37.574,42.562,37.574c22.524,0,33.171-19.963,42.563-37.574
	c9.721-18.226,16.507-29.294,28.762-29.294c12.256,0,19.042,11.067,28.763,29.294c9.393,17.612,20.04,37.574,42.564,37.574
	c22.525,0,33.173-19.963,42.566-37.574c6.94-13.01,12.384-22.367,19.389-26.662c1.018,7.518,1.555,15.188,1.555,22.982
	C426.493,419.875,350.01,496.358,256,496.358z"/>
<path d="M371.027,304.353l15.379-2.857c-1.618-8.71-4.127-17.288-7.46-25.497l-14.492,5.884
	C367.389,289.116,369.6,296.676,371.027,304.353z"/>
<path d="M353.629,261.365l13.042-8.635c-19.784-29.882-51.24-50.756-86.303-57.269l-2.856,15.379
	C308.429,216.582,336.172,234.998,353.629,261.365z"/>
</svg>