<?xml version="1.0" encoding="iso-8859-1"?>
<!-- Uploaded to: SVG Repo, www.svgrepo.com, Generator: SVG Repo Mixer Tools -->
<svg height="800px" width="800px" version="1.1" id="Layer_1" xmlns="http://www.w3.org/2000/svg" xmlns:xlink="http://www.w3.org/1999/xlink" 
	 viewBox="0 0 512 512" xml:space="preserve">
<g transform="translate(1 1)">
	<path style="fill:#54C9FD;" d="M246.467,75.8c17.92,0,34.987,2.56,51.2,5.973v-25.6c0-8.533-6.827-14.507-14.507-14.507h-73.387
		c-8.533,0-14.507,6.827-14.507,14.507v25.6C211.48,78.36,228.547,75.8,246.467,75.8"/>
	<path style="fill:#33A9F8;" d="M283.16,41.667h-25.6c8.533,0,14.507,6.827,14.507,14.507v21.333
		c8.533,0.853,17.067,2.56,25.6,4.267v-25.6C297.667,48.493,290.84,41.667,283.16,41.667"/>
	<path style="fill:#FFFFFF;" d="M209.773,41.667h25.6c-8.533,0-14.507,6.827-14.507,14.507v21.333
		c-8.533,0.853-17.067,2.56-25.6,4.267v-25.6C195.267,48.493,202.093,41.667,209.773,41.667"/>
	<path style="fill:#54C9FD;" d="M246.467,7.533c-9.387,0-17.067,7.68-17.067,17.067v17.067h34.133V24.6
		C263.533,15.213,255.853,7.533,246.467,7.533"/>
	<path style="fill:#FFDD09;" d="M459.8,289.133c0,117.76-95.573,213.333-213.333,213.333S33.133,406.893,33.133,289.133
		S128.707,75.8,246.467,75.8S459.8,171.373,459.8,289.133"/>
	<path style="fill:#FD9808;" d="M246.467,75.8c-4.267,0-8.533,0-12.8,0C345.453,82.627,434.2,175.64,434.2,289.133
		S345.453,495.64,233.667,502.467c4.267,0,8.533,0,12.8,0c117.76,0,213.333-95.573,213.333-213.333S364.227,75.8,246.467,75.8"/>
	<path style="fill:#FFFFFF;" d="M246.467,75.8c4.267,0,8.533,0,12.8,0C147.48,82.627,58.733,175.64,58.733,289.133
		S147.48,495.64,259.267,502.467c-4.267,0-8.533,0-12.8,0c-117.76,0-213.333-95.573-213.333-213.333S128.707,75.8,246.467,75.8"/>
	<path style="fill:#FFDD09;" d="M272.067,75.8c-4.267,0-8.533,0-12.8,0C371.053,82.627,459.8,175.64,459.8,289.133
		S371.053,495.64,259.267,502.467c4.267,0,8.533,0,12.8,0c117.76,0,213.333-95.573,213.333-213.333S389.827,75.8,272.067,75.8"/>
	<g>
		<path style="fill:#1CD759;" d="M220.867,382.147v34.987h51.2V383C255,383,237.933,383,220.867,382.147"/>
		<path style="fill:#1CD759;" d="M161.133,212.333H203.8l-85.333,76.8h68.267l-68.267,76.8l0,0c81.067,19.627,170.667,25.6,256,0
			l0,0l-68.267-76.8h68.267l-85.333-76.8H331.8l-85.333-76.8L161.133,212.333z"/>
	</g>
	<path d="M246.467,511C124.44,511,24.6,411.16,24.6,289.133S124.44,67.267,246.467,67.267s221.867,99.84,221.867,221.867
		S368.493,511,246.467,511z M246.467,84.333c-112.64,0-204.8,92.16-204.8,204.8s92.16,204.8,204.8,204.8s204.8-92.16,204.8-204.8
		S359.107,84.333,246.467,84.333z"/>
	<path d="M111.64,181.613c-1.707,0-4.267-0.853-5.12-1.707c-3.413-3.413-4.267-8.533-0.853-11.947
		c17.067-20.48,37.547-35.84,61.44-47.787c4.267-1.707,9.387,0,11.093,4.267c1.707,4.267,0,9.387-4.267,11.093
		c-20.48,10.24-40.107,25.6-55.467,43.52C115.907,180.76,114.2,181.613,111.64,181.613z"/>
	<path d="M67.267,297.667L67.267,297.667c-5.12,0-8.533-4.267-8.533-8.533c0-27.307,6.827-54.613,18.773-80.213
		c1.707-4.267,6.827-5.973,11.093-4.267c4.267,2.56,5.973,7.68,4.267,11.947C81.773,239.64,75.8,264.387,75.8,289.133
		C75.8,294.253,72.387,297.667,67.267,297.667z"/>
	<path d="M306.2,92.867l-10.24-2.56c-32.427-7.68-66.56-7.68-98.987,0l-10.24,2.56V56.173c0-12.8,10.24-23.04,23.04-23.04h73.387
		c12.8,0,23.04,10.24,23.04,23.04V92.867z M246.467,67.267c14.507,0,29.013,1.707,42.667,4.267v-15.36
		c0-3.413-2.56-5.973-5.973-5.973h-73.387c-3.413,0-5.973,2.56-5.973,5.973v15.36C217.453,68.973,231.96,67.267,246.467,67.267z"/>
	<path d="M272.067,50.2h-51.2V24.6c0-14.507,11.093-25.6,25.6-25.6c14.507,0,25.6,11.093,25.6,25.6V50.2z M237.933,33.133H255V24.6
		c0-5.12-3.413-8.533-8.533-8.533c-5.12,0-8.533,3.413-8.533,8.533V33.133z"/>
	<path d="M254.147,391.533c-43.52,0-89.6-5.973-137.387-17.067c-2.56-0.853-5.12-2.56-5.973-5.973c-0.853-2.56,0-5.973,1.707-8.533
		l55.467-62.293h-49.493c-3.413,0-6.827-2.56-7.68-5.12c-0.853-2.56,0-6.827,2.56-9.387l69.12-62.293h-21.333
		c-3.413,0-6.827-2.56-7.68-5.12c-0.853-3.413,0-6.827,2.56-9.387l85.333-76.8c3.413-2.56,8.533-2.56,11.093,0l85.333,76.8
		c2.56,2.56,3.413,5.973,2.56,9.387c-1.707,2.56-5.12,5.12-8.533,5.12h-20.48l69.12,62.293c2.56,2.56,3.413,5.973,2.56,9.387
		c-0.853,3.413-5.12,5.12-8.533,5.12h-49.493l55.467,62.293c1.707,1.707,2.56,3.413,2.56,5.973c0,3.413-2.56,6.827-5.12,7.68h-0.853
		C337.773,385.56,296.813,391.533,254.147,391.533z M134.68,360.813c82.773,17.92,157.867,17.92,224.427,0.853l-58.88-66.56
		c-2.56-2.56-2.56-5.973-1.707-9.387c0.853-3.413,4.267-5.12,7.68-5.12h46.08l-69.12-62.293c-2.56-2.56-3.413-5.973-2.56-9.387
		s4.267-5.12,7.68-5.12h20.48l-62.293-57.173L183.32,203.8h20.48c3.413,0,6.827,2.56,7.68,5.12c0.853,3.413,0,6.827-2.56,9.387
		L140.653,280.6h46.08c3.413,0,6.827,1.707,7.68,5.12c1.707,3.413,0.853,6.827-1.707,9.387L134.68,360.813z"/>
	<path d="M187.587,301.933c-3.413,0-6.827-1.707-7.68-5.12c-0.853-2.56-1.707-5.12-1.707-7.68c0-5.12,3.413-8.533,8.533-8.533
		c5.12,0,8.533,3.413,8.533,8.533c0,0,0,0,0,0.853c1.707,4.267,0,9.387-4.267,11.093
		C190.147,301.933,188.44,301.933,187.587,301.933z"/>
	<path d="M318.147,347.16C318.147,347.16,317.293,347.16,318.147,347.16c-3.413,0-6.827-0.853-9.387-0.853
		c-4.267-0.853-7.68-5.12-7.68-9.387c0.853-4.267,5.12-7.68,9.387-7.68c2.56,0,5.973,0.853,8.533,0.853
		c4.267,0.853,8.533,4.267,7.68,9.387C325.827,343.747,322.413,347.16,318.147,347.16z M283.16,342.04c-0.853,0-0.853,0-1.707,0
		c-2.56-0.853-5.973-0.853-8.533-1.707c-4.267-0.853-7.68-5.12-6.827-10.24c0.853-4.267,5.12-7.68,10.24-6.827
		c2.56,0.853,5.973,0.853,8.533,1.707c4.267,0.853,7.68,5.12,6.827,10.24C290.84,339.48,287.427,342.04,283.16,342.04z
		 M249.027,334.36c-0.853,0-1.707,0-2.56,0c-2.56-0.853-5.973-1.707-8.533-2.56c-4.267-1.707-6.827-5.973-5.973-11.093
		c1.707-4.267,5.973-6.827,11.093-5.973c2.56,0.853,5.12,1.707,8.533,2.56c4.267,1.707,6.827,5.973,5.973,10.24
		C255.853,331.8,252.44,334.36,249.027,334.36z M215.747,322.413c-0.853,0-2.56,0-3.413-0.853c-3.413-1.707-5.973-2.56-8.533-4.267
		c-4.267-2.56-5.973-7.68-3.413-11.947c2.56-4.267,7.68-5.973,11.947-3.413c2.56,0.853,5.12,2.56,7.68,3.413
		c4.267,1.707,5.973,6.827,4.267,11.093C221.72,320.707,218.307,322.413,215.747,322.413z"/>
	<path d="M348.867,348.867H344.6c-5.12,0-8.533-4.267-8.533-8.533s4.267-8.533,8.533-8.533h4.267c5.12,0,8.533,3.413,8.533,8.533
		C357.4,345.453,353.987,348.867,348.867,348.867z"/>
	<path d="M288.28,225.133c-0.853,0-0.853,0-1.707,0c-4.267-0.853-7.68-5.973-6.827-10.24c0-0.853,0-1.707,0-2.56
		c0-5.12,3.413-8.533,8.533-8.533c5.12,0,8.533,3.413,8.533,8.533c0,1.707,0,4.267-0.853,5.973
		C295.96,222.573,292.547,225.133,288.28,225.133z"/>
	<path d="M189.293,295.107c-4.267,0-7.68-2.56-8.533-6.827c-0.853-4.267,1.707-9.387,6.827-10.24c2.56-0.853,5.12-0.853,7.68-1.707
		c4.267-0.853,9.387,1.707,10.24,5.973c0.853,4.267-1.707,9.387-5.973,10.24c-2.56,0.853-5.12,0.853-8.533,1.707
		C190.147,295.107,189.293,295.107,189.293,295.107z M219.16,285.72c-3.413,0-6.827-1.707-7.68-5.12
		c-1.707-4.267,0-9.387,4.267-11.093c2.56-0.853,4.267-1.707,6.827-3.413c4.267-1.707,9.387,0,11.093,4.267
		c1.707,4.267,0,9.387-4.267,11.093c-2.56,0.853-5.12,2.56-7.68,3.413C221.72,285.72,220.013,285.72,219.16,285.72z M247.32,271.213
		c-2.56,0-5.12-1.707-6.827-4.267c-2.56-4.267-1.707-9.387,2.56-11.947c1.707-1.707,4.267-2.56,5.973-4.267
		c3.413-2.56,9.387-1.707,11.947,1.707c2.56,3.413,1.707,9.387-1.707,11.947c-2.56,1.707-4.267,3.413-6.827,5.12
		C250.733,270.36,249.027,271.213,247.32,271.213z M271.213,251.587c-2.56,0-4.267-0.853-5.973-2.56
		c-3.413-3.413-3.413-8.533,0-11.947c1.707-1.707,3.413-3.413,5.12-5.12c3.413-3.413,8.533-4.267,11.947-0.853
		s4.267,8.533,0.853,11.947c-1.707,1.707-3.413,4.267-5.973,5.973C276.333,250.733,273.773,251.587,271.213,251.587z"/>
	<path d="M161.133,297.667c-5.12,0-8.533-3.413-8.533-8.533c0-5.12,3.413-8.533,8.533-8.533c1.707,0,2.56,0,4.267,0
		c5.12,0,8.533,3.413,8.533,8.533c0,5.12-3.413,8.533-8.533,8.533C164.547,297.667,162.84,297.667,161.133,297.667z"/>
	<path d="M357.4,161.133c0,5.12-3.413,8.533-8.533,8.533c-5.12,0-8.533-3.413-8.533-8.533c0-5.12,3.413-8.533,8.533-8.533
		C353.987,152.6,357.4,156.013,357.4,161.133"/>
	<path d="M425.667,323.267c0,5.12-3.413,8.533-8.533,8.533s-8.533-3.413-8.533-8.533c0-5.12,3.413-8.533,8.533-8.533
		S425.667,318.147,425.667,323.267"/>
	<path d="M314.733,451.267c0,5.12-3.413,8.533-8.533,8.533s-8.533-3.413-8.533-8.533s3.413-8.533,8.533-8.533
		S314.733,446.147,314.733,451.267"/>
	<path d="M92.867,340.333c0,5.12-3.413,8.533-8.533,8.533c-5.12,0-8.533-3.413-8.533-8.533c0-5.12,3.413-8.533,8.533-8.533
		C89.453,331.8,92.867,335.213,92.867,340.333"/>
	<path d="M135.533,229.4c0,5.12-3.413,8.533-8.533,8.533s-8.533-3.413-8.533-8.533c0-5.12,3.413-8.533,8.533-8.533
		S135.533,224.28,135.533,229.4"/>
	<path d="M178.2,417.133c0,5.12-3.413,8.533-8.533,8.533c-5.12,0-8.533-3.413-8.533-8.533s3.413-8.533,8.533-8.533
		C174.787,408.6,178.2,412.013,178.2,417.133"/>
	<path d="M272.067,425.667h-51.2c-5.12,0-8.533-3.413-8.533-8.533v-34.987c0-2.56,0.853-4.267,2.56-5.973
		c1.707-1.707,4.267-2.56,5.973-2.56c17.067,0.853,34.133,1.707,50.347,0.853c2.56,0,4.267,0.853,5.973,2.56
		c1.707,1.707,3.413,3.413,3.413,5.973v34.133C280.6,422.253,277.187,425.667,272.067,425.667z M229.4,408.6h34.133v-17.067
		c-11.093,0-22.187,0-34.133-0.853V408.6z"/>
</g>
</svg>