<?xml version="1.0" encoding="iso-8859-1"?>
<!-- Uploaded to: SVG Repo, www.svgrepo.com, Generator: SVG Repo Mixer Tools -->
<svg height="800px" width="800px" version="1.1" id="Layer_1" xmlns="http://www.w3.org/2000/svg" xmlns:xlink="http://www.w3.org/1999/xlink" 
	 viewBox="0 0 512 512" xml:space="preserve">
<g>
	<path style="fill:#9AD14B;" d="M476.194,280.384l-6.604,97.621l-77.882-52.276C420.87,312.909,449.136,297.777,476.194,280.384z"/>
	<path style="fill:#9AD14B;" d="M253.701,367.918v0.024l-40.797,89.263l-56.582-79.502
		C189.039,377.038,221.612,373.76,253.701,367.918z"/>
</g>
<g>
	<path style="fill:#2BA5F7;" d="M373.226,333.495l-20.961,95.311L279.79,362.62v-0.012
		C311.601,355.412,342.855,345.687,373.226,333.495z"/>
	<path style="fill:#2BA5F7;" d="M136.267,377.788v0.012l-51.211,78.583l-44.281-87.255
		C72.477,374.534,104.408,377.401,136.267,377.788z"/>
</g>
<g>
	<path style="fill:#F95428;" d="M471.21,170.789l-44.269,87.255l-51.224-78.595C407.577,179.062,439.509,176.196,471.21,170.789z"/>
	<path style="fill:#F95428;" d="M232.195,164.27v0.012l-72.475,66.185l-20.949-95.311
		C169.13,147.348,200.385,157.073,232.195,164.27z"/>
</g>
<g>
	<path style="fill:#F7B239;" d="M355.664,179.365l-56.582,79.502l-40.797-89.263v-0.024
		C290.374,175.421,322.946,178.699,355.664,179.365z"/>
	<path style="fill:#F7B239;" d="M120.277,127.379v0.012l-77.882,52.264l-6.604-97.609C62.849,99.439,91.116,114.57,120.277,127.379z
		"/>
</g>
<g>
	<path style="fill:#808080;" d="M143.9,386.908c-2.571,0-5.157-0.017-7.747-0.05c-32.412-0.394-65.016-3.352-96.901-8.79
		c-10.641-1.809-21.466-3.949-32.169-6.357c-4.888-1.099-7.959-5.953-6.859-10.841c1.101-4.889,5.958-7.959,10.842-6.858
		c10.392,2.338,20.899,4.415,31.231,6.172c30.958,5.281,62.61,8.151,94.081,8.533c6.678,0.085,13.319,0.057,19.747-0.082
		c32.125-0.654,64.404-3.897,95.951-9.641c8.654-1.558,17.295-3.317,25.701-5.23c31.339-7.09,62.313-16.741,92.071-28.686
		c6.153-2.464,12.274-5.035,18.203-7.648c28.852-12.684,56.854-27.715,83.237-44.675c8.917-5.722,17.775-11.747,26.335-17.911
		c4.065-2.926,9.737-2.005,12.663,2.061c2.928,4.065,2.005,9.734-2.06,12.663c-8.822,6.351-17.951,12.56-27.133,18.453
		c-27.176,17.468-56.022,32.951-85.734,46.014c-6.111,2.692-12.424,5.346-18.762,7.882c-30.641,12.301-62.541,22.241-94.805,29.539
		c-8.664,1.972-17.578,3.786-26.484,5.39c-32.479,5.913-65.727,9.254-98.803,9.928C152.376,386.863,148.157,386.908,143.9,386.908z"
		/>
	<path style="fill:#808080;" d="M368.088,188.569c-4.266,0-8.49-0.045-12.621-0.135c-33.062-0.673-66.31-4.013-98.808-9.929
		c-8.89-1.6-17.804-3.415-26.478-5.39c-32.263-7.3-64.158-17.238-94.791-29.542c-6.398-2.556-12.724-5.217-18.785-7.899
		c-29.67-13.031-58.518-28.511-85.718-45.997c-0.12-0.076-0.236-0.156-0.351-0.237c-8.942-5.736-17.945-11.862-26.764-18.212
		c-4.065-2.927-4.988-8.596-2.06-12.663c2.927-4.066,8.597-4.987,12.663-2.061c8.672,6.245,17.525,12.263,26.31,17.89
		c0.126,0.081,0.25,0.164,0.373,0.25c26.296,16.879,54.176,31.825,82.871,44.428c5.883,2.604,12.003,5.178,18.212,7.659
		c29.754,11.949,60.723,21.6,92.06,28.69c8.416,1.916,17.058,3.675,25.694,5.229c31.568,5.746,63.845,8.99,95.957,9.644
		c6.425,0.14,13.063,0.167,19.755,0.083c31.474-0.382,63.127-3.252,94.081-8.532c10.332-1.755,20.844-3.832,31.248-6.173
		c4.889-1.102,9.743,1.97,10.842,6.858c1.099,4.888-1.972,9.742-6.859,10.841c-10.715,2.412-21.545,4.551-32.187,6.358
		c-31.88,5.437-64.484,8.394-96.9,8.788C373.241,188.553,370.656,188.569,368.088,188.569z"/>
</g>
</svg>