<?xml version="1.0" encoding="iso-8859-1"?>
<!-- Uploaded to: SVG Repo, www.svgrepo.com, Generator: SVG Repo Mixer Tools -->
<svg height="800px" width="800px" version="1.1" id="Layer_1" xmlns="http://www.w3.org/2000/svg" xmlns:xlink="http://www.w3.org/1999/xlink" 
	 viewBox="0 0 512.005 512.005" xml:space="preserve">
<g transform="translate(0 -1)">
	<path style="fill:#BE3A2B;" d="M85.336,252.74h34.133l9.438,18.876c10.172,20.343,10.172,44.305,0,64.649l-1.809,3.61
		c-4.676,9.353-14.234,15.266-24.695,15.266s-20.019-5.914-24.695-15.266l-1.809-3.61c-10.172-20.343-10.172-44.305,0-64.649
		L85.336,252.74z"/>
	<path style="fill:#F0C419;" d="M392.535,252.74h34.133l9.438,18.876c10.172,20.343,10.172,44.305,0,64.649l-1.809,3.61
		c-4.676,9.353-14.234,15.266-24.695,15.266c-10.462,0-20.019-5.914-24.695-15.266l-1.809-3.61
		c-10.172-20.343-10.172-44.305,0-64.649L392.535,252.74z"/>
	<path style="fill:#71C084;" d="M238.934,269.807h34.133l9.438,18.876c10.172,20.343,10.172,44.305,0,64.649l-1.809,3.61
		c-4.676,9.353-14.234,15.266-24.695,15.266l0,0c-10.462,0-20.019-5.914-24.695-15.266l-1.809-3.61
		c-10.172-20.343-10.172-44.305,0-64.649L238.934,269.807z"/>
	<path style="fill:#4C8056;" d="M256.002,303.94c-4.71,0-8.533-3.823-8.533-8.533v-25.6c0-4.71,3.823-8.533,8.533-8.533
		c4.71,0,8.533,3.823,8.533,8.533v25.6C264.536,300.117,260.713,303.94,256.002,303.94"/>
	<path style="fill:#A6352B;" d="M102.402,286.874c-4.71,0-8.533-3.823-8.533-8.533v-25.6c0-4.71,3.823-8.533,8.533-8.533
		c4.71,0,8.533,3.823,8.533,8.533v25.6C110.936,283.051,107.113,286.874,102.402,286.874"/>
	<g>
		<path style="fill:#BDC2C6;" d="M256.002,244.207c-4.71,0-8.533-3.823-8.533-8.533v-50.961c0-4.71,3.823-8.533,8.533-8.533
			c4.71,0,8.533,3.823,8.533,8.533v50.961C264.536,240.384,260.713,244.207,256.002,244.207"/>
		<path style="fill:#BDC2C6;" d="M102.402,227.14c-4.71,0-8.533-3.823-8.533-8.533v-47.283c0-4.71,3.823-8.533,8.533-8.533
			c4.71,0,8.533,3.823,8.533,8.533v47.283C110.936,223.317,107.113,227.14,102.402,227.14"/>
		<path style="fill:#BDC2C6;" d="M409.602,227.14c-4.719,0-8.533-3.823-8.533-8.533v-47.283c0-4.71,3.814-8.533,8.533-8.533
			c4.719,0,8.533,3.823,8.533,8.533v47.283C418.136,223.317,414.321,227.14,409.602,227.14"/>
	</g>
	<path style="fill:#556080;" d="M256.002,192.853c-83.439,0-166.878-11.426-249.737-34.287c-4.54-1.254-7.211-5.948-5.956-10.496
		c1.254-4.54,5.922-7.228,10.496-5.956c162.705,44.885,327.697,44.885,490.394,0c4.523-1.237,9.242,1.408,10.496,5.956
		s-1.417,9.242-5.956,10.496C422.889,181.426,339.441,192.853,256.002,192.853"/>
	<g>
		<path style="fill:#E6E7E8;" d="M119.469,252.74H85.336l-0.026-25.574c0-4.727,3.831-8.559,8.559-8.559h17.007
			c4.727,0,8.567,3.831,8.567,8.559L119.469,252.74z"/>
		<path style="fill:#E6E7E8;" d="M426.668,252.74h-34.133l-0.026-25.574c0-4.727,3.831-8.559,8.559-8.559h17.007
			c4.727,0,8.567,3.831,8.567,8.559L426.668,252.74z"/>
		<path style="fill:#E6E7E8;" d="M273.067,269.807h-34.133l-0.026-25.574c0-4.727,3.831-8.559,8.559-8.559h17.007
			c4.727,0,8.567,3.831,8.567,8.559L273.067,269.807z"/>
	</g>
	<path style="fill:#C19817;" d="M409.602,286.874c-4.719,0-8.533-3.823-8.533-8.533v-25.6c0-4.71,3.814-8.533,8.533-8.533
		c4.719,0,8.533,3.823,8.533,8.533v25.6C418.136,283.051,414.321,286.874,409.602,286.874"/>
</g>
</svg>