<?xml version="1.0" ?><!-- Uploaded to: SVG Repo, www.svgrepo.com, Generator: SVG Repo Mixer Tools -->
<svg width="800px" height="800px" viewBox="0 0 128 128" data-name="Layer 2" id="Layer_2" xmlns="http://www.w3.org/2000/svg"><defs><style>.cls-1{fill:#f7edac;}.cls-2{fill:#f1e175;}.cls-3{fill:#dbc64d;}</style></defs><title/><polygon class="cls-1" points="63.07 10.69 72.91 38.36 99.43 25.75 86.82 52.28 114.49 62.12 86.82 71.96 99.43 98.48 72.91 85.87 63.07 113.54 53.23 85.87 26.71 98.48 39.31 71.96 11.64 62.12 39.31 52.28 26.71 25.75 53.23 38.36 63.07 10.69"/><path class="cls-2" d="M99.43,99.23A.74.74,0,0,1,98.9,99L35.1,35.22a.76.76,0,0,1,1.07-1.07L100,98A.74.74,0,0,1,100,99,.73.73,0,0,1,99.43,99.23Z"/><path class="cls-2" d="M32.75,32.55a.75.75,0,0,1-.53-.22l-6-6a.76.76,0,1,1,1.07-1.07l6,6a.77.77,0,0,1,0,1.07A.79.79,0,0,1,32.75,32.55Z"/><path class="cls-2" d="M114.49,62.87H11.64a.75.75,0,1,1,0-1.5H114.49a.75.75,0,0,1,0,1.5Z"/><path class="cls-2" d="M94.15,31.79a.76.76,0,0,1-.53-1.29l5.28-5.28A.75.75,0,1,1,100,26.29l-5.28,5.27A.74.74,0,0,1,94.15,31.79Z"/><path class="cls-2" d="M38.92,87a.79.79,0,0,1-.53-.22.77.77,0,0,1,0-1.07L90,34.15A.75.75,0,0,1,91,35.22L39.45,86.8A.77.77,0,0,1,38.92,87Z"/><path class="cls-2" d="M26.71,99.23A.75.75,0,0,1,26.17,98L35.1,89a.75.75,0,1,1,1.07,1.06L27.24,99A.74.74,0,0,1,26.71,99.23Z"/><rect class="cls-2" height="102.85" width="1.5" x="62.32" y="10.69"/><path class="cls-2" d="M63.07,114.29a.74.74,0,0,1-.75-.75V10.69a.75.75,0,0,1,1.5,0V113.54A.75.75,0,0,1,63.07,114.29Z"/><rect class="cls-3" height="6.76" transform="translate(-25.45 62.79) rotate(-45)" width="6.76" x="59.69" y="58.74"/><polygon class="cls-2" points="12.69 106.92 14.66 110.52 18.26 112.49 14.66 114.46 12.69 118.06 10.73 114.46 7.13 112.49 10.73 110.52 12.69 106.92"/><polygon class="cls-2" points="26.71 70.98 28.67 74.58 32.27 76.55 28.67 78.51 26.71 82.11 24.74 78.51 21.14 76.55 24.74 74.58 26.71 70.98"/><polygon class="cls-2" points="78.08 21.83 80.05 25.43 83.65 27.4 80.05 29.36 78.08 32.97 76.11 29.36 72.51 27.4 76.11 25.43 78.08 21.83"/><polygon class="cls-2" points="115.31 71.91 117.27 75.51 120.87 77.48 117.27 79.44 115.31 83.04 113.34 79.44 109.74 77.48 113.34 75.51 115.31 71.91"/></svg>